<svg width="173" height="52" viewBox="0 0 173 52" fill="none" xmlns="http://www.w3.org/2000/svg">
<g clip-path="url(#clip0_1_108)">
<path d="M44 0H8C3.58172 0 0 3.58172 0 8V44C0 48.4183 3.58172 52 8 52H44C48.4183 52 52 48.4183 52 44V8C52 3.58172 48.4183 0 44 0Z" fill="url(#paint0_linear_1_108)"/>
<path d="M26.5465 43.7622L8.23755 25.5928L19.7472 28.8061L26.5465 43.7622Z" fill="#015F43"/>
<path d="M34.9271 41.2642L28.9094 35.2926L33.5249 18.7502L34.9271 41.2642Z" fill="#015F43"/>
<path d="M43.6281 8.49512L34.9268 41.2642L33.5247 18.7503L43.6281 8.49512Z" fill="#00B27E"/>
<path d="M43.6281 8.49512L33.5247 18.7503L34.9268 41.2642L34.202 19.089L43.6281 8.49512Z" fill="#00D2A3"/>
<path d="M33.5243 18.7502L16.8722 23.256L10.9426 17.3264L33.5243 18.7502Z" fill="#00865F"/>
<path d="M43.6278 8.49512L33.5243 18.7503L10.9426 17.3265L43.6278 8.49512Z" fill="#00D2A3"/>
<path d="M33.1179 17.802L10.9426 17.3265L33.5243 18.7503L43.6278 8.49512L33.1179 17.802Z" fill="#7AFFE0"/>
<path d="M26.5464 43.7623L19.7471 28.8063L33.5245 18.7502L28.909 35.2926L26.5464 43.7623Z" fill="#00865F"/>
<path d="M26.5464 43.7623L19.7471 28.8063L33.5245 18.7502L28.909 35.2926L26.5464 43.7623Z" fill="#00865F"/>
<path d="M26.5464 43.7623L20.4922 29.0433L33.5245 18.7502L28.909 35.2926L26.5464 43.7623Z" fill="#00865F"/>
<path d="M33.5246 18.7502L19.7472 28.8063L8.23755 25.5929L16.8725 23.256L33.5246 18.7502Z" fill="#00B27E"/>
<path d="M19.5778 28.0612L8.23755 25.5929L19.7472 28.8063L33.5246 18.7502L19.5778 28.0612Z" fill="#00D2A3"/>
</g>
<path d="M61.6818 20.4705V18.0364H73.15V20.4705H68.875V32H65.9568V20.4705H61.6818ZM73.8966 32V21.5273H76.7125V23.3545H76.8216C77.0125 22.7045 77.333 22.2136 77.783 21.8818C78.233 21.5455 78.7511 21.3773 79.3375 21.3773C79.483 21.3773 79.6398 21.3864 79.808 21.4045C79.9761 21.4227 80.1239 21.4477 80.2511 21.4795V24.0568C80.1148 24.0159 79.9261 23.9795 79.6852 23.9477C79.4443 23.9159 79.2239 23.9 79.0239 23.9C78.5966 23.9 78.2148 23.9932 77.8784 24.1795C77.5466 24.3614 77.283 24.6159 77.0875 24.9432C76.8966 25.2705 76.8011 25.6477 76.8011 26.075V32H73.8966ZM81.7528 32V21.5273H84.6574V32H81.7528ZM83.2119 20.1773C82.7801 20.1773 82.4097 20.0341 82.1006 19.7477C81.796 19.4568 81.6438 19.1091 81.6438 18.7045C81.6438 18.3045 81.796 17.9614 82.1006 17.675C82.4097 17.3841 82.7801 17.2386 83.2119 17.2386C83.6438 17.2386 84.0119 17.3841 84.3165 17.675C84.6256 17.9614 84.7801 18.3045 84.7801 18.7045C84.7801 19.1091 84.6256 19.4568 84.3165 19.7477C84.0119 20.0341 83.6438 20.1773 83.2119 20.1773ZM89.8886 18.0364V32H86.9841V18.0364H89.8886ZM95.1199 25.9455V32H92.2153V18.0364H95.0381V23.375H95.1608C95.3972 22.7568 95.779 22.2727 96.3063 21.9227C96.8335 21.5682 97.4949 21.3909 98.2903 21.3909C99.0176 21.3909 99.6517 21.55 100.193 21.8682C100.738 22.1818 101.161 22.6341 101.461 23.225C101.765 23.8114 101.915 24.5136 101.911 25.3318V32H99.0063V25.85C99.0108 25.2045 98.8472 24.7023 98.5153 24.3432C98.1881 23.9841 97.729 23.8045 97.1381 23.8045C96.7426 23.8045 96.3926 23.8886 96.0881 24.0568C95.7881 24.225 95.5517 24.4705 95.379 24.7932C95.2108 25.1114 95.1244 25.4955 95.1199 25.9455ZM107.183 32.1977C106.515 32.1977 105.919 32.0818 105.397 31.85C104.874 31.6136 104.46 31.2659 104.156 30.8068C103.856 30.3432 103.706 29.7659 103.706 29.075C103.706 28.4932 103.813 28.0045 104.026 27.6091C104.24 27.2136 104.531 26.8955 104.899 26.6545C105.267 26.4136 105.685 26.2318 106.153 26.1091C106.626 25.9864 107.122 25.9 107.64 25.85C108.249 25.7864 108.74 25.7273 109.113 25.6727C109.485 25.6136 109.756 25.5273 109.924 25.4136C110.092 25.3 110.176 25.1318 110.176 24.9091V24.8682C110.176 24.4364 110.04 24.1023 109.767 23.8659C109.499 23.6295 109.117 23.5114 108.622 23.5114C108.099 23.5114 107.683 23.6273 107.374 23.8591C107.065 24.0864 106.86 24.3727 106.76 24.7182L104.074 24.5C104.21 23.8636 104.478 23.3136 104.878 22.85C105.278 22.3818 105.794 22.0227 106.426 21.7727C107.063 21.5182 107.799 21.3909 108.635 21.3909C109.217 21.3909 109.774 21.4591 110.306 21.5955C110.842 21.7318 111.317 21.9432 111.731 22.2295C112.149 22.5159 112.478 22.8841 112.719 23.3341C112.96 23.7795 113.081 24.3136 113.081 24.9364V32H110.326V30.5477H110.244C110.076 30.875 109.851 31.1636 109.569 31.4136C109.288 31.6591 108.949 31.8523 108.553 31.9932C108.158 32.1295 107.701 32.1977 107.183 32.1977ZM108.015 30.1932C108.442 30.1932 108.819 30.1091 109.147 29.9409C109.474 29.7682 109.731 29.5364 109.917 29.2455C110.103 28.9545 110.197 28.625 110.197 28.2568V27.1455C110.106 27.2045 109.981 27.2591 109.822 27.3091C109.667 27.3545 109.492 27.3977 109.297 27.4386C109.101 27.475 108.906 27.5091 108.71 27.5409C108.515 27.5682 108.338 27.5932 108.178 27.6159C107.838 27.6659 107.54 27.7455 107.285 27.8545C107.031 27.9636 106.833 28.1114 106.692 28.2977C106.551 28.4795 106.481 28.7068 106.481 28.9795C106.481 29.375 106.624 29.6773 106.91 29.8864C107.201 30.0909 107.569 30.1932 108.015 30.1932ZM122.785 18.0364V32H119.832V18.0364H122.785ZM129.877 36.1455C128.936 36.1455 128.13 36.0159 127.457 35.7568C126.789 35.5023 126.257 35.1545 125.861 34.7136C125.466 34.2727 125.209 33.7773 125.091 33.2273L127.777 32.8659C127.859 33.075 127.989 33.2705 128.166 33.4523C128.343 33.6341 128.577 33.7795 128.868 33.8886C129.164 34.0023 129.523 34.0591 129.945 34.0591C130.577 34.0591 131.098 33.9045 131.507 33.5955C131.92 33.2909 132.127 32.7795 132.127 32.0614V30.1455H132.005C131.877 30.4364 131.686 30.7114 131.432 30.9705C131.177 31.2295 130.85 31.4409 130.45 31.6045C130.05 31.7682 129.573 31.85 129.018 31.85C128.232 31.85 127.516 31.6682 126.87 31.3045C126.23 30.9364 125.718 30.375 125.336 29.6205C124.959 28.8614 124.77 27.9023 124.77 26.7432C124.77 25.5568 124.964 24.5659 125.35 23.7705C125.736 22.975 126.25 22.3795 126.891 21.9841C127.536 21.5886 128.243 21.3909 129.011 21.3909C129.598 21.3909 130.089 21.4909 130.484 21.6909C130.88 21.8864 131.198 22.1318 131.439 22.4273C131.684 22.7182 131.873 23.0045 132.005 23.2864H132.114V21.5273H134.998V32.1023C134.998 32.9932 134.78 33.7386 134.343 34.3386C133.907 34.9386 133.302 35.3886 132.53 35.6886C131.761 35.9932 130.877 36.1455 129.877 36.1455ZM129.939 29.6682C130.407 29.6682 130.802 29.5523 131.125 29.3205C131.452 29.0841 131.702 28.7477 131.875 28.3114C132.052 27.8705 132.141 27.3432 132.141 26.7295C132.141 26.1159 132.055 25.5841 131.882 25.1341C131.709 24.6795 131.459 24.3273 131.132 24.0773C130.805 23.8273 130.407 23.7023 129.939 23.7023C129.461 23.7023 129.059 23.8318 128.732 24.0909C128.405 24.3455 128.157 24.7 127.989 25.1545C127.82 25.6091 127.736 26.1341 127.736 26.7295C127.736 27.3341 127.82 27.8568 127.989 28.2977C128.161 28.7341 128.409 29.0727 128.732 29.3136C129.059 29.55 129.461 29.6682 129.939 29.6682ZM140.214 25.9455V32H137.309V21.5273H140.077V23.375H140.2C140.432 22.7659 140.82 22.2841 141.366 21.9295C141.911 21.5705 142.573 21.3909 143.35 21.3909C144.077 21.3909 144.711 21.55 145.252 21.8682C145.793 22.1864 146.214 22.6409 146.514 23.2318C146.814 23.8182 146.964 24.5182 146.964 25.3318V32H144.059V25.85C144.064 25.2091 143.9 24.7091 143.568 24.35C143.236 23.9864 142.78 23.8045 142.198 23.8045C141.807 23.8045 141.461 23.8886 141.161 24.0568C140.866 24.225 140.634 24.4705 140.466 24.7932C140.302 25.1114 140.218 25.4955 140.214 25.9455ZM149.253 32V21.5273H152.157V32H149.253ZM150.712 20.1773C150.28 20.1773 149.91 20.0341 149.601 19.7477C149.296 19.4568 149.144 19.1091 149.144 18.7045C149.144 18.3045 149.296 17.9614 149.601 17.675C149.91 17.3841 150.28 17.2386 150.712 17.2386C151.144 17.2386 151.512 17.3841 151.816 17.675C152.126 17.9614 152.28 18.3045 152.28 18.7045C152.28 19.1091 152.126 19.4568 151.816 19.7477C151.512 20.0341 151.144 20.1773 150.712 20.1773ZM160.055 21.5273V23.7091H153.748V21.5273H160.055ZM155.18 19.0182H158.084V28.7818C158.084 29.05 158.125 29.2591 158.207 29.4091C158.289 29.5545 158.402 29.6568 158.548 29.7159C158.698 29.775 158.87 29.8045 159.066 29.8045C159.202 29.8045 159.339 29.7932 159.475 29.7705C159.611 29.7432 159.716 29.7227 159.789 29.7091L160.245 31.8705C160.1 31.9159 159.895 31.9682 159.632 32.0273C159.368 32.0909 159.048 32.1295 158.67 32.1432C157.97 32.1705 157.357 32.0773 156.83 31.8636C156.307 31.65 155.9 31.3182 155.609 30.8682C155.318 30.4182 155.175 29.85 155.18 29.1636V19.0182ZM166.607 32.2045C165.53 32.2045 164.602 31.9864 163.825 31.55C163.052 31.1091 162.457 30.4864 162.039 29.6818C161.62 28.8727 161.411 27.9159 161.411 26.8114C161.411 25.7341 161.62 24.7886 162.039 23.975C162.457 23.1614 163.045 22.5273 163.805 22.0727C164.568 21.6182 165.464 21.3909 166.491 21.3909C167.182 21.3909 167.825 21.5023 168.42 21.725C169.02 21.9432 169.543 22.2727 169.989 22.7136C170.439 23.1545 170.789 23.7091 171.039 24.3773C171.289 25.0409 171.414 25.8182 171.414 26.7091V27.5068H162.57V25.7068H168.68C168.68 25.2886 168.589 24.9182 168.407 24.5955C168.225 24.2727 167.973 24.0205 167.65 23.8386C167.332 23.6523 166.961 23.5591 166.539 23.5591C166.098 23.5591 165.707 23.6614 165.366 23.8659C165.03 24.0659 164.766 24.3364 164.575 24.6773C164.384 25.0136 164.286 25.3886 164.282 25.8023V27.5136C164.282 28.0318 164.377 28.4795 164.568 28.8568C164.764 29.2341 165.039 29.525 165.393 29.7295C165.748 29.9341 166.168 30.0364 166.655 30.0364C166.977 30.0364 167.273 29.9909 167.541 29.9C167.809 29.8091 168.039 29.6727 168.23 29.4909C168.42 29.3091 168.566 29.0864 168.666 28.8227L171.352 29C171.216 29.6455 170.936 30.2091 170.514 30.6909C170.095 31.1682 169.555 31.5409 168.891 31.8091C168.232 32.0727 167.47 32.2045 166.607 32.2045Z" fill="white"/>
<defs>
<linearGradient id="paint0_linear_1_108" x1="51.473" y1="-0.642859" x2="12.2951" y2="59.9498" gradientUnits="userSpaceOnUse">
<stop stop-color="#00291D"/>
<stop offset="1" stop-color="#121214"/>
</linearGradient>
<clipPath id="clip0_1_108">
<rect width="52" height="52" fill="white"/>
</clipPath>
</defs>
</svg>
