<svg width="52" height="52" viewBox="0 0 52 52" fill="none" xmlns="http://www.w3.org/2000/svg">
<rect width="52" height="52" rx="8" fill="url(#paint0_linear_4_2314)"/>
<path d="M26.5465 43.7622L8.23755 25.5928L19.7472 28.8061L26.5465 43.7622Z" fill="#015F43"/>
<path d="M34.9271 41.2642L28.9094 35.2926L33.5249 18.7502L34.9271 41.2642Z" fill="#015F43"/>
<path d="M43.6281 8.49512L34.9268 41.2642L33.5247 18.7503L43.6281 8.49512Z" fill="#00B27E"/>
<path d="M43.6281 8.49512L33.5247 18.7503L34.9268 41.2642L34.202 19.089L43.6281 8.49512Z" fill="#00D2A3"/>
<path d="M33.5243 18.7502L16.8722 23.256L10.9426 17.3264L33.5243 18.7502Z" fill="#00865F"/>
<path d="M43.6278 8.49512L33.5243 18.7503L10.9426 17.3265L43.6278 8.49512Z" fill="#00D2A3"/>
<path d="M33.1179 17.802L10.9426 17.3265L33.5243 18.7503L43.6278 8.49512L33.1179 17.802Z" fill="#7AFFE0"/>
<path d="M26.5464 43.7623L19.7471 28.8063L33.5245 18.7502L28.909 35.2926L26.5464 43.7623Z" fill="#00865F"/>
<path d="M26.5464 43.7623L19.7471 28.8063L33.5245 18.7502L28.909 35.2926L26.5464 43.7623Z" fill="#00865F"/>
<path d="M26.5464 43.7623L20.4922 29.0433L33.5245 18.7502L28.909 35.2926L26.5464 43.7623Z" fill="#00865F"/>
<path d="M33.5246 18.7502L19.7472 28.8063L8.23755 25.5929L16.8725 23.256L33.5246 18.7502Z" fill="#00B27E"/>
<path d="M19.5778 28.0612L8.23755 25.5929L19.7472 28.8063L33.5246 18.7502L19.5778 28.0612Z" fill="#00D2A3"/>
<defs>
<linearGradient id="paint0_linear_4_2314" x1="51.473" y1="-0.64286" x2="12.2951" y2="59.9498" gradientUnits="userSpaceOnUse">
<stop stop-color="#00291D"/>
<stop offset="1" stop-color="#121214"/>
</linearGradient>
</defs>
</svg>
